<?xml version="1.0" standalone="no"?>
<!DOCTYPE svg PUBLIC "-//W3C//DTD SVG 20010904//EN"
 "http://www.w3.org/TR/2001/REC-SVG-20010904/DTD/svg10.dtd">
<svg version="1.0" xmlns="http://www.w3.org/2000/svg"
 width="2000.000000pt" height="2000.000000pt" viewBox="0 0 2000.000000 2000.000000"
 preserveAspectRatio="xMidYMid meet">
<metadata>
Created by potrace 1.11, written by Peter Selinger 2001-2013
</metadata>
<g transform="translate(0.000000,2000.000000) scale(0.100000,-0.100000)"
fill="#000000" stroke="none">
<path d="M5098 13915 c-2 -1 -55 -6 -118 -9 -63 -4 -124 -9 -135 -11 -11 -3
-42 -7 -70 -10 -27 -2 -63 -7 -80 -9 -16 -3 -63 -10 -104 -16 -40 -5 -76 -12
-80 -14 -3 -2 -23 -7 -44 -10 -69 -11 -240 -56 -352 -92 -426 -139 -787 -363
-1070 -665 -105 -113 -128 -141 -202 -252 -144 -216 -251 -483 -289 -721 -3
-21 -7 -47 -9 -58 -18 -91 -25 -402 -12 -525 44 -429 197 -763 482 -1048 123
-124 153 -148 331 -272 78 -54 436 -243 460 -243 3 0 24 -9 47 -19 287 -131
749 -265 1362 -396 11 -3 45 -10 75 -17 30 -6 57 -12 60 -13 40 -8 376 -92
545 -135 333 -86 774 -240 980 -342 301 -150 466 -319 565 -576 57 -149 81
-404 55 -587 -44 -315 -214 -580 -505 -787 -187 -132 -435 -236 -723 -302 -84
-20 -87 -20 -312 -51 -160 -22 -660 -22 -774 0 -11 2 -51 7 -88 10 -37 4 -70
9 -73 10 -3 2 -26 6 -50 10 -25 4 -76 13 -115 22 -38 8 -80 16 -92 19 -68 13
-299 91 -401 135 -537 230 -857 555 -1012 1028 -37 113 -74 276 -85 376 -3 28
-8 60 -11 73 l-4 22 -501 0 -501 0 6 -98 c4 -55 8 -107 10 -118 2 -10 7 -46
10 -79 4 -33 9 -67 11 -75 2 -8 6 -33 9 -55 4 -22 8 -51 11 -65 3 -14 7 -34 9
-45 24 -116 97 -359 130 -430 20 -43 49 -109 50 -115 11 -42 153 -287 229
-395 117 -164 316 -382 446 -488 31 -25 67 -55 80 -66 13 -12 27 -21 31 -21 3
0 16 -9 28 -20 57 -53 336 -212 487 -277 125 -55 296 -115 425 -150 78 -21
200 -51 235 -58 60 -12 241 -44 280 -49 125 -18 188 -25 260 -31 44 -4 90 -8
103 -10 44 -7 336 -18 492 -18 148 0 343 8 440 19 25 2 63 6 85 8 294 28 714
137 950 245 22 10 43 20 47 20 14 4 178 90 250 132 287 167 559 408 760 674
201 266 350 648 383 980 3 33 8 78 10 100 7 59 7 313 1 365 -3 25 -8 72 -11
105 -3 33 -7 69 -9 80 -2 11 -7 40 -11 65 -29 190 -123 440 -225 605 -120 193
-340 416 -585 592 -238 171 -470 284 -837 407 -217 73 -449 141 -723 212 -124
32 -239 61 -320 79 -11 3 -47 11 -80 19 -149 36 -240 57 -370 86 -77 17 -178
40 -225 51 -47 12 -92 22 -100 24 -8 2 -51 13 -95 25 -44 12 -102 28 -130 35
-284 76 -550 172 -729 261 -227 114 -348 225 -437 403 -65 130 -83 219 -83
406 0 186 4 218 45 340 63 187 190 365 344 480 22 17 46 36 53 42 19 18 137
86 228 132 108 53 287 115 397 137 10 2 26 5 35 8 29 9 160 31 247 41 28 4 61
8 74 10 42 7 282 18 391 18 117 0 364 -11 399 -18 13 -2 47 -7 75 -9 42 -4
231 -38 286 -52 66 -16 147 -39 210 -61 102 -35 309 -135 365 -176 227 -167
342 -295 448 -498 40 -76 110 -256 121 -312 3 -12 8 -33 11 -47 8 -31 44 -231
45 -245 0 -7 171 -10 507 -10 l507 0 -3 63 c-1 35 -4 71 -5 80 -2 10 -7 49
-11 87 -6 61 -24 175 -39 242 -15 70 -50 201 -58 216 -5 10 -11 28 -13 40 -3
12 -11 38 -19 57 -8 19 -24 60 -36 90 -111 278 -331 580 -569 780 -30 25 -59
50 -65 55 -82 75 -330 228 -527 325 -178 88 -527 200 -764 246 -22 4 -42 8
-45 9 -14 3 -108 18 -125 20 -22 2 -106 14 -134 20 -10 2 -55 6 -102 10 -46 3
-100 9 -119 11 -37 5 -597 14 -602 9z"/>
<path d="M9975 13780 c-1 -3 -3 -1775 -3 -3938 l0 -3932 495 2 495 3 0 3340
c0 2791 3 3335 14 3310 7 -16 13 -37 14 -46 0 -9 2 -18 5 -21 4 -3 187 -547
409 -1209 222 -662 445 -1328 496 -1479 51 -151 93 -279 95 -285 1 -5 5 -17 8
-25 3 -8 27 -78 53 -155 25 -77 285 -851 576 -1720 292 -869 533 -1591 535
-1605 3 -14 9 -29 13 -35 4 -5 11 -25 15 -43 l7 -32 471 2 471 3 53 160 c29
88 221 664 428 1280 207 616 378 1127 380 1135 2 8 52 157 110 330 59 173 108
320 109 325 1 6 4 15 7 20 4 6 9 22 13 37 3 15 11 40 18 55 6 15 12 33 13 38
2 6 105 314 229 685 125 371 371 1107 548 1635 176 528 323 966 327 972 4 7 6
-1487 6 -3320 -1 -1832 1 -3338 3 -3344 3 -10 111 -13 492 -13 456 0 488 1
492 18 2 9 3 1781 3 3937 l-1 3920 -778 0 c-677 0 -780 -2 -787 -15 -8 -16
-20 -48 -25 -65 -1 -5 -9 -30 -17 -55 -8 -25 -79 -241 -157 -480 -78 -239
-150 -460 -160 -490 -10 -30 -80 -244 -155 -475 -75 -231 -156 -478 -180 -550
-23 -71 -93 -285 -154 -475 -62 -190 -127 -390 -146 -445 -18 -55 -88 -269
-155 -475 -67 -206 -162 -496 -210 -645 -113 -343 -210 -641 -301 -920 -39
-121 -88 -272 -109 -335 -36 -108 -261 -800 -317 -975 -14 -44 -33 -98 -41
-119 l-16 -40 -42 130 c-23 71 -85 264 -139 429 -53 165 -99 307 -102 315 -4
8 -7 17 -8 20 -4 16 -95 297 -135 420 -26 80 -96 294 -155 475 -130 404 -187
579 -230 710 -18 55 -79 242 -135 415 -126 392 -227 703 -245 755 -8 22 -62
189 -120 370 -59 182 -119 368 -135 415 -15 47 -74 227 -130 400 -56 173 -114
353 -130 400 -46 137 -203 624 -206 635 -1 6 -34 107 -72 225 -39 118 -88 267
-108 330 l-37 115 -779 0 c-429 0 -781 -2 -783 -5z"/>
</g>
</svg>
